<svg width="142" height="31" fill="none" xmlns="http://www.w3.org/2000/svg"><g clip-path="url(#clip0)"><path d="M115.229 12.0707L113.644 9.33972H112.795L114.803 12.8328 113.175 15.6761H114.015L117.571 9.33972H116.737L115.229 12.0707zM121.282 9.24622C119.947 9.24622 118.954 10.2424 118.954 11.5609 118.954 12.8799 119.947 13.8758 121.282 13.8758 122.618 13.8758 123.615 12.8799 123.615 11.5609 123.615 10.2424 122.618 9.24622 121.282 9.24622zM121.282 13.1605C120.396 13.1605 119.729 12.4916 119.729 11.5609 119.729 10.6304 120.396 9.96638 121.282 9.96638 122.163 9.96638 122.836 10.6304 122.836 11.5609 122.836 12.4916 122.163 13.1605 121.282 13.1605zM127.78 13.8758C128.833 13.8758 129.788 13.263 129.788 11.9211V9.33972H129.027V11.8511C129.027 12.758 128.494 13.1604 127.78 13.1604 127.061 13.1604 126.528 12.758 126.528 11.8511V9.33972H125.768V11.9211C125.768 13.263 126.718 13.8758 127.78 13.8758zM133.03 11.3086C133.03 10.4901 133.504 9.9709 134.176 9.9709 134.426 9.9709 134.723 10.0318 134.932 10.1441L135.117 9.39102C134.881 9.28845 134.626 9.24622 134.31 9.24622 133.787 9.24622 133.327 9.48938 133.021 9.92444V9.33974H132.274V13.7823H133.03V11.3086H133.03zM115.424 19.0934L114.914 19.0282C114.38 18.9625 114.06 18.7992 114.06 18.4432 114.06 18.0413 114.45 17.784 115.053 17.784 115.633 17.784 116.194 18.0039 116.472 18.1955L116.801 17.602C116.375 17.3073 115.74 17.1202 115.044 17.1202 113.972 17.1202 113.272 17.6344 113.272 18.4858 113.272 19.1591 113.75 19.6081 114.738 19.7294L115.248 19.79C115.846 19.8648 116.134 20.0712 116.134 20.3982 116.134 20.8375 115.688 21.0762 114.965 21.0762 114.227 21.0762 113.787 20.8613 113.458 20.604L113.105 21.1742C113.685 21.6141 114.417 21.745 114.96 21.745 116.161 21.745 116.913 21.198 116.913 20.3512 116.913 19.6171 116.361 19.2198 115.424 19.0934zM121.352 17.1157C120.656 17.1157 120.141 17.3866 119.798 17.8027V17.2087H119.042V23.5221H119.798V21.0575C120.141 21.4735 120.656 21.745 121.352 21.745 122.585 21.745 123.554 20.7723 123.554 19.4301 123.554 18.0884 122.585 17.1157 121.352 17.1157zM121.263 21.0297C120.373 21.0297 119.752 20.3421 119.752 19.4301 119.752 18.5232 120.373 17.8356 121.263 17.8356 122.163 17.8356 122.775 18.5464 122.775 19.4301 122.775 20.3138 122.177 21.0297 121.263 21.0297zM129.176 17.8073C128.829 17.3866 128.314 17.1157 127.623 17.1157 126.385 17.1157 125.42 18.0884 125.42 19.4301 125.42 20.7723 126.385 21.7451 127.623 21.7451 128.314 21.7451 128.829 21.4735 129.176 21.0575V21.6515H129.937V17.2087H129.176V17.8073zM127.711 21.0297C126.807 21.0297 126.195 20.3138 126.195 19.4301 126.195 18.5464 126.793 17.8356 127.711 17.8356 128.601 17.8356 129.223 18.5232 129.223 19.4301 129.223 20.3421 128.601 21.0297 127.711 21.0297zM134.403 17.8356C134.872 17.8356 135.248 18.0181 135.572 18.3361L136.059 17.8169C135.665 17.3583 135.076 17.1157 134.422 17.1157 133.059 17.1157 132.136 18.1116 132.136 19.4301 132.136 20.7491 133.059 21.7451 134.422 21.7451 135.076 21.7451 135.66 21.5019 136.059 21.0484L135.59 20.5201C135.285 20.8194 134.872 21.0297 134.403 21.0297 133.555 21.0297 132.91 20.3608 132.91 19.4301 132.91 18.4999 133.555 17.8356 134.403 17.8356zM142 19.4159C141.991 18.0555 141.128 17.1157 139.927 17.1157 138.661 17.1157 137.738 18.0646 137.738 19.4301 137.738 20.8143 138.666 21.7451 139.974 21.7451 140.623 21.7451 141.235 21.5858 141.782 21.0716L141.379 20.5479C141.003 20.8749 140.535 21.0762 140.02 21.0762 139.264 21.0762 138.629 20.6227 138.522 19.7016H141.986C141.991 19.6171 142 19.5146 142 19.4159zM138.531 19.0843C138.647 18.3265 139.134 17.7936 139.913 17.7936 140.628 17.7936 141.133 18.2987 141.226 19.0843H138.531zM7.55237 9.12671C5.88099 9.12671 4.61837 9.72272 3.82742 11.029V9.95228C3.82742 9.68563 3.60997 9.46944 3.34171 9.46944H.485706C.217457 9.46944 0 9.68562 0 9.95228V21.4264C0 21.693.217457 21.9092.485711 21.9092H3.50759C3.77584 21.9092 3.99333 21.693 3.99333 21.4264V15.214C3.99333 13.6032 4.91168 12.8553 6.02138 12.8553 7.25906 12.8553 7.99909 13.6793 7.99909 15.1504V21.4264C7.99909 21.693 8.21655 21.9092 8.4848 21.9092H11.5061C11.7744 21.9092 11.9918 21.693 11.9918 21.4264V13.7428C11.9918 10.8641 10.0526 9.12671 7.55237 9.12671zM77.4611 15.4859C77.3349 15.3063 77.3413 15.0653 77.4766 14.8926L81.3283 9.97679C81.5842 9.65012 81.3516 9.17196 80.9367 9.17196H77.2974C77.1367 9.17196 76.9859 9.24962 76.8925 9.38049L74.179 13.1833C74.0856 13.3142 73.9348 13.3919 73.7741 13.3919H73.5543C73.2795 13.3919 73.0568 13.1691 73.0568 12.8941V3.71006C73.0568 3.43515 72.8341 3.21228 72.5593 3.21228H69.4926C69.2179 3.21228 68.9951 3.43515 68.9951 3.71006V21.4115C68.9951 21.6864 69.2179 21.9093 69.4926 21.9093H72.5593C72.8341 21.9093 73.0568 21.6864 73.0568 21.4115V17.4864C73.0568 17.2114 73.2795 16.9886 73.5543 16.9886H73.6539C73.8237 16.9886 73.9818 17.0753 74.0732 17.2185L76.92 21.6794C77.0114 21.8226 77.1695 21.9093 77.3393 21.9093H81.0151C81.418 21.9093 81.6538 21.4552 81.4221 21.1253L77.4611 15.4859zM99.5827 9.2891H96.645C96.3702 9.2891 96.1475 9.50522 96.1475 9.77185V10.6237C95.3826 9.65406 94.2145 8.94873 92.5016 8.94873 89.0884 8.94873 86.5703 11.8203 86.5703 15.447 86.5703 19.0991 89.0884 21.9702 92.4878 21.9702 94.2145 21.9702 95.3826 21.2777 96.1475 20.308V21.1599C96.1475 21.4265 96.3702 21.6426 96.645 21.6426H99.5827C99.8574 21.6426 100.08 21.4265 100.08 21.1599V9.77185C100.08 9.50522 99.8574 9.2891 99.5827 9.2891zM93.4612 18.2932C91.8392 18.2932 90.7495 17.0714 90.7495 15.4593 90.7495 13.8475 91.8392 12.6263 93.4612 12.6263 95.0577 12.6263 96.1866 13.8223 96.1866 15.4593 96.1866 17.0966 95.0577 18.2932 93.4612 18.2932zM32.9528 0C24.4638 0 17.582 6.93959 17.582 15.5 17.582 24.0604 24.4638 31 32.9528 31 41.4419 31 48.3237 24.0604 48.3237 15.5 48.3237 6.93959 41.4419 0 32.9528 0zM32.7444 21.9183C29.4101 21.811 26.6944 19.0725 26.588 15.7102 26.4704 11.9974 29.4794 8.9631 33.1613 9.08166 36.4956 9.18901 39.2113 11.9275 39.3177 15.2898 39.4352 19.0026 36.4263 22.0368 32.7444 21.9183z" fill="#18171D"/><path d="M57.6841 0.00335881C54.0022 -0.115173 50.9932 2.9191 51.1108 6.63195C51.2172 9.99426 53.9329 12.7328 57.2672 12.8401C60.949 12.9586 63.958 9.92436 63.8405 6.21157C63.734 2.84924 61.0184 0.110709 57.6841 0.00335881Z" fill="#F72431"/></g><defs><clipPath id="clip0"><path fill="#fff" d="M0 0H142V31H0z"/></clipPath></defs></svg>